<mxGraphModel dx="1224" dy="824" grid="1" gridSize="10" guides="1" tooltips="1" connect="1" arrows="1" fold="1" page="1" pageScale="1" pageWidth="827" pageHeight="1169" math="0" shadow="0">
  <root>
    <mxCell id="0" />
    <mxCell id="1" parent="0" />
    <mxCell id="8kUsYUT2bKm_VSwphkvY-1" value="incomes :IncomeList" style="shape=umlLifeline;rounded=1;perimeter=lifelinePerimeter;whiteSpace=wrap;html=1;container=0;dropTarget=0;collapsible=0;recursiveResize=0;outlineConnect=0;portConstraint=eastwest;newEdgeStyle={&quot;edgeStyle&quot;:&quot;elbowEdgeStyle&quot;,&quot;elbow&quot;:&quot;vertical&quot;,&quot;curved&quot;:0,&quot;rounded&quot;:0};" parent="1" vertex="1">
      <mxGeometry x="370" y="40" width="100" height="890" as="geometry" />
    </mxCell>
    <mxCell id="8kUsYUT2bKm_VSwphkvY-2" value="" style="html=1;points=[];perimeter=orthogonalPerimeter;outlineConnect=0;targetShapes=umlLifeline;portConstraint=eastwest;newEdgeStyle={&quot;edgeStyle&quot;:&quot;elbowEdgeStyle&quot;,&quot;elbow&quot;:&quot;vertical&quot;,&quot;curved&quot;:0,&quot;rounded&quot;:0};" parent="1" vertex="1">
      <mxGeometry x="415" y="556" width="10" height="300" as="geometry" />
    </mxCell>
    <mxCell id="8kUsYUT2bKm_VSwphkvY-4" value="spendings :SpendingList" style="shape=umlLifeline;rounded=1;perimeter=lifelinePerimeter;whiteSpace=wrap;html=1;container=0;dropTarget=0;collapsible=0;recursiveResize=0;outlineConnect=0;portConstraint=eastwest;newEdgeStyle={&quot;edgeStyle&quot;:&quot;elbowEdgeStyle&quot;,&quot;elbow&quot;:&quot;vertical&quot;,&quot;curved&quot;:0,&quot;rounded&quot;:0};" parent="1" vertex="1">
      <mxGeometry x="260" y="40" width="100" height="890" as="geometry" />
    </mxCell>
    <mxCell id="8kUsYUT2bKm_VSwphkvY-5" value=":Wiagi" style="shape=umlLifeline;rounded=1;perimeter=lifelinePerimeter;whiteSpace=wrap;html=1;container=0;dropTarget=0;collapsible=0;recursiveResize=0;outlineConnect=0;portConstraint=eastwest;newEdgeStyle={&quot;edgeStyle&quot;:&quot;elbowEdgeStyle&quot;,&quot;elbow&quot;:&quot;vertical&quot;,&quot;curved&quot;:0,&quot;rounded&quot;:0};" parent="1" vertex="1">
      <mxGeometry x="40" y="40" width="100" height="890" as="geometry" />
    </mxCell>
    <mxCell id="8kUsYUT2bKm_VSwphkvY-6" value="" style="html=1;points=[];perimeter=orthogonalPerimeter;outlineConnect=0;targetShapes=umlLifeline;portConstraint=eastwest;newEdgeStyle={&quot;edgeStyle&quot;:&quot;elbowEdgeStyle&quot;,&quot;elbow&quot;:&quot;vertical&quot;,&quot;curved&quot;:0,&quot;rounded&quot;:0};" parent="8kUsYUT2bKm_VSwphkvY-5" vertex="1">
      <mxGeometry x="45" y="68" width="10" height="792" as="geometry" />
    </mxCell>
    <mxCell id="8kUsYUT2bKm_VSwphkvY-7" value="&amp;nbsp; &amp;nbsp; &amp;nbsp; &amp;nbsp; &amp;nbsp; &amp;nbsp; &amp;nbsp; &amp;nbsp; Load from Storage" style="rounded=0;whiteSpace=wrap;html=1;" parent="1" vertex="1">
      <mxGeometry x="50" y="130" width="180" height="50" as="geometry" />
    </mxCell>
    <mxCell id="8kUsYUT2bKm_VSwphkvY-8" value="" style="shape=card;whiteSpace=wrap;html=1;rotation=90;size=15;flipV=0;flipH=1;" parent="1" vertex="1">
      <mxGeometry x="72.5" y="108" width="20" height="65" as="geometry" />
    </mxCell>
    <mxCell id="8kUsYUT2bKm_VSwphkvY-9" value="ref" style="text;html=1;align=center;verticalAlign=middle;whiteSpace=wrap;rounded=0;" parent="1" vertex="1">
      <mxGeometry x="57" y="130" width="36" height="20" as="geometry" />
    </mxCell>
    <mxCell id="8kUsYUT2bKm_VSwphkvY-10" value="" style="endArrow=block;html=1;rounded=0;endFill=1;" parent="1" source="8kUsYUT2bKm_VSwphkvY-6" edge="1">
      <mxGeometry width="50" height="50" relative="1" as="geometry">
        <mxPoint x="100" y="230" as="sourcePoint" />
        <mxPoint x="305.5" y="230" as="targetPoint" />
      </mxGeometry>
    </mxCell>
    <mxCell id="8kUsYUT2bKm_VSwphkvY-11" value="" style="html=1;points=[];perimeter=orthogonalPerimeter;outlineConnect=0;targetShapes=umlLifeline;portConstraint=eastwest;newEdgeStyle={&quot;edgeStyle&quot;:&quot;elbowEdgeStyle&quot;,&quot;elbow&quot;:&quot;vertical&quot;,&quot;curved&quot;:0,&quot;rounded&quot;:0};" parent="1" vertex="1">
      <mxGeometry x="305" y="230" width="10" height="300" as="geometry" />
    </mxCell>
    <mxCell id="8kUsYUT2bKm_VSwphkvY-12" value="updateRecurrence()" style="text;html=1;align=center;verticalAlign=middle;whiteSpace=wrap;rounded=0;" parent="1" vertex="1">
      <mxGeometry x="170" y="207" width="60" height="30" as="geometry" />
    </mxCell>
    <mxCell id="8kUsYUT2bKm_VSwphkvY-13" value="&amp;lt;&amp;lt;class&amp;gt;&amp;gt;&lt;br&gt;:Parser" style="shape=umlLifeline;rounded=1;perimeter=lifelinePerimeter;whiteSpace=wrap;html=1;container=0;dropTarget=0;collapsible=0;recursiveResize=0;outlineConnect=0;portConstraint=eastwest;newEdgeStyle={&quot;edgeStyle&quot;:&quot;elbowEdgeStyle&quot;,&quot;elbow&quot;:&quot;vertical&quot;,&quot;curved&quot;:0,&quot;rounded&quot;:0};" parent="1" vertex="1">
      <mxGeometry x="646" y="40" width="100" height="890" as="geometry" />
    </mxCell>
    <mxCell id="8kUsYUT2bKm_VSwphkvY-14" value="recurrence :Recurrence&lt;span style=&quot;color: rgba(0, 0, 0, 0); font-family: monospace; font-size: 0px; text-align: start; text-wrap-mode: nowrap;&quot;&gt;%3CmxGraphModel%3E%3Croot%3E%3CmxCell%20id%3D%220%22%2F%3E%3CmxCell%20id%3D%221%22%20parent%3D%220%22%2F%3E%3CmxCell%20id%3D%222%22%20value%3D%22%26amp%3Blt%3B%26amp%3Blt%3Bclass%26amp%3Bgt%3B%26amp%3Bgt%3B%26lt%3Bbr%26gt%3B%3AParser%22%20style%3D%22shape%3DumlLifeline%3Bperimeter%3DlifelinePerimeter%3BwhiteSpace%3Dwrap%3Bhtml%3D1%3Bcontainer%3D0%3BdropTarget%3D0%3Bcollapsible%3D0%3BrecursiveResize%3D0%3BoutlineConnect%3D0%3BportConstraint%3Deastwest%3BnewEdgeStyle%3D%7B%26quot%3BedgeStyle%26quot%3B%3A%26quot%3BelbowEdgeStyle%26quot%3B%2C%26quot%3Belbow%26quot%3B%3A%26quot%3Bvertical%26quot%3B%2C%26quot%3Bcurved%26quot%3B%3A0%2C%26quot%3Brounded%26quot%3B%3A0%7D%3B%22%20vertex%3D%221%22%20parent%3D%221%22%3E%3CmxGeometry%20x%3D%22509%22%20y%3D%2240%22%20width%3D%22100%22%20height%3D%22390%22%20as%3D%22geometry%22%2F%3E%3C%2FmxCell%3E%3CmxCell%20id%3D%223%22%20value%3D%22%22%20style%3D%22html%3D1%3Bpoints%3D%5B%5D%3Bperimeter%3DorthogonalPerimeter%3BoutlineConnect%3D0%3BtargetShapes%3DumlLifeline%3BportConstraint%3Deastwest%3BnewEdgeStyle%3D%7B%26quot%3BedgeStyle%26quot%3B%3A%26quot%3BelbowEdgeStyle%26quot%3B%2C%26quot%3Belbow%26quot%3B%3A%26quot%3Bvertical%26quot%3B%2C%26quot%3Bcurved%26quot%3B%3A0%2C%26quot%3Brounded%26quot%3B%3A0%7D%3B%22%20vertex%3D%221%22%20parent%3D%222%22%3E%3CmxGeometry%20x%3D%2245%22%20y%3D%22202%22%20width%3D%2210%22%20height%3D%2233%22%20as%3D%22geometry%22%2F%3E%3C%2FmxCell%3E%3C%2Froot%3E%3C%2FmxGraphModel%3E&lt;/span&gt;" style="shape=umlLifeline;rounded=1;perimeter=lifelinePerimeter;whiteSpace=wrap;html=1;container=0;dropTarget=0;collapsible=0;recursiveResize=0;outlineConnect=0;portConstraint=eastwest;newEdgeStyle={&quot;edgeStyle&quot;:&quot;elbowEdgeStyle&quot;,&quot;elbow&quot;:&quot;vertical&quot;,&quot;curved&quot;:0,&quot;rounded&quot;:0};" parent="1" vertex="1">
      <mxGeometry x="861" y="40" width="100" height="840" as="geometry" />
    </mxCell>
    <mxCell id="8kUsYUT2bKm_VSwphkvY-16" value="" style="shape=note;whiteSpace=wrap;html=1;backgroundOutline=1;darkOpacity=0.05;rotation=-90;size=16;flipV=1;flipH=1;" parent="1" vertex="1">
      <mxGeometry x="751.16" y="111.22" width="90.06" height="111.25" as="geometry" />
    </mxCell>
    <mxCell id="8kUsYUT2bKm_VSwphkvY-17" value="&lt;font style=&quot;font-size: 12px;&quot;&gt;Could be any child class (DailyRecurrence, MontlyRecurrence, YearlyRecurrence)&lt;/font&gt;" style="text;html=1;align=center;verticalAlign=middle;whiteSpace=wrap;rounded=0;" parent="1" vertex="1">
      <mxGeometry x="743.3800000000001" y="143" width="105.62" height="30" as="geometry" />
    </mxCell>
    <mxCell id="8kUsYUT2bKm_VSwphkvY-18" value="" style="html=1;points=[];perimeter=orthogonalPerimeter;outlineConnect=0;targetShapes=umlLifeline;portConstraint=eastwest;newEdgeStyle={&quot;edgeStyle&quot;:&quot;elbowEdgeStyle&quot;,&quot;elbow&quot;:&quot;vertical&quot;,&quot;curved&quot;:0,&quot;rounded&quot;:0};" parent="1" vertex="1">
      <mxGeometry x="692" y="291" width="10" height="33" as="geometry" />
    </mxCell>
    <mxCell id="8kUsYUT2bKm_VSwphkvY-19" value="" style="endArrow=block;html=1;rounded=0;endFill=1;" parent="1" target="8kUsYUT2bKm_VSwphkvY-18" edge="1">
      <mxGeometry width="50" height="50" relative="1" as="geometry">
        <mxPoint x="315" y="291" as="sourcePoint" />
        <mxPoint x="632" y="291" as="targetPoint" />
      </mxGeometry>
    </mxCell>
    <mxCell id="8kUsYUT2bKm_VSwphkvY-20" value="parseRecurrence(income : Income&lt;span style=&quot;background-color: initial;&quot;&gt;)&lt;/span&gt;" style="text;html=1;align=center;verticalAlign=middle;whiteSpace=wrap;rounded=0;" parent="1" vertex="1">
      <mxGeometry x="423" y="267" width="210" height="30" as="geometry" />
    </mxCell>
    <mxCell id="8kUsYUT2bKm_VSwphkvY-21" value="" style="endArrow=block;dashed=1;html=1;rounded=0;endFill=1;" parent="1" source="8kUsYUT2bKm_VSwphkvY-18" edge="1">
      <mxGeometry width="50" height="50" relative="1" as="geometry">
        <mxPoint x="525" y="324" as="sourcePoint" />
        <mxPoint x="315" y="324" as="targetPoint" />
      </mxGeometry>
    </mxCell>
    <mxCell id="8kUsYUT2bKm_VSwphkvY-22" value="Recurrence child object" style="text;html=1;align=center;verticalAlign=middle;whiteSpace=wrap;rounded=0;" parent="1" vertex="1">
      <mxGeometry x="427" y="301" width="195" height="30" as="geometry" />
    </mxCell>
    <mxCell id="8kUsYUT2bKm_VSwphkvY-23" value="" style="html=1;points=[];perimeter=orthogonalPerimeter;outlineConnect=0;targetShapes=umlLifeline;portConstraint=eastwest;newEdgeStyle={&quot;edgeStyle&quot;:&quot;elbowEdgeStyle&quot;,&quot;elbow&quot;:&quot;vertical&quot;,&quot;curved&quot;:0,&quot;rounded&quot;:0};" parent="1" vertex="1">
      <mxGeometry x="906" y="397" width="10" height="83" as="geometry" />
    </mxCell>
    <mxCell id="8kUsYUT2bKm_VSwphkvY-24" value="" style="endArrow=block;html=1;rounded=0;endFill=1;" parent="1" target="8kUsYUT2bKm_VSwphkvY-23" edge="1">
      <mxGeometry width="50" height="50" relative="1" as="geometry">
        <mxPoint x="315" y="397" as="sourcePoint" />
        <mxPoint x="752" y="397" as="targetPoint" />
      </mxGeometry>
    </mxCell>
    <mxCell id="8kUsYUT2bKm_VSwphkvY-25" value="checkIncomeRecurrence(...)" style="text;html=1;align=center;verticalAlign=middle;whiteSpace=wrap;rounded=0;" parent="1" vertex="1">
      <mxGeometry x="300.38" y="370" width="433" height="30" as="geometry" />
    </mxCell>
    <mxCell id="8kUsYUT2bKm_VSwphkvY-26" value="loop" style="shape=umlFrame;whiteSpace=wrap;html=1;pointerEvents=0;" parent="1" vertex="1">
      <mxGeometry x="222" y="240" width="780" height="270" as="geometry" />
    </mxCell>
    <mxCell id="8kUsYUT2bKm_VSwphkvY-27" value="[until last element of incomes]" style="text;html=1;align=center;verticalAlign=middle;whiteSpace=wrap;rounded=0;" parent="1" vertex="1">
      <mxGeometry x="295" y="237" width="210" height="30" as="geometry" />
    </mxCell>
    <mxCell id="8kUsYUT2bKm_VSwphkvY-28" value="" style="rounded=0;whiteSpace=wrap;html=1;" parent="1" vertex="1">
      <mxGeometry x="801" y="411" width="182" height="50" as="geometry" />
    </mxCell>
    <mxCell id="8kUsYUT2bKm_VSwphkvY-29" value="" style="shape=card;whiteSpace=wrap;html=1;rotation=90;size=15;flipV=0;flipH=1;" parent="1" vertex="1">
      <mxGeometry x="823.5" y="389" width="20" height="65" as="geometry" />
    </mxCell>
    <mxCell id="8kUsYUT2bKm_VSwphkvY-30" value="ref" style="text;html=1;align=center;verticalAlign=middle;whiteSpace=wrap;rounded=0;" parent="1" vertex="1">
      <mxGeometry x="808" y="411" width="36" height="20" as="geometry" />
    </mxCell>
    <mxCell id="8kUsYUT2bKm_VSwphkvY-31" value="Add recurring entry" style="text;html=1;align=center;verticalAlign=middle;whiteSpace=wrap;rounded=0;" parent="1" vertex="1">
      <mxGeometry x="861" y="430" width="110" height="26" as="geometry" />
    </mxCell>
    <mxCell id="8kUsYUT2bKm_VSwphkvY-32" value="" style="endArrow=block;dashed=1;html=1;rounded=0;endFill=1;" parent="1" source="8kUsYUT2bKm_VSwphkvY-23" edge="1">
      <mxGeometry width="50" height="50" relative="1" as="geometry">
        <mxPoint x="902" y="479" as="sourcePoint" />
        <mxPoint x="315" y="479" as="targetPoint" />
      </mxGeometry>
    </mxCell>
    <mxCell id="8kUsYUT2bKm_VSwphkvY-33" value="return" style="text;html=1;align=center;verticalAlign=middle;whiteSpace=wrap;rounded=0;" parent="1" vertex="1">
      <mxGeometry x="465" y="453" width="60" height="31" as="geometry" />
    </mxCell>
    <mxCell id="8kUsYUT2bKm_VSwphkvY-34" value="" style="html=1;points=[];perimeter=orthogonalPerimeter;outlineConnect=0;targetShapes=umlLifeline;portConstraint=eastwest;newEdgeStyle={&quot;edgeStyle&quot;:&quot;elbowEdgeStyle&quot;,&quot;elbow&quot;:&quot;vertical&quot;,&quot;curved&quot;:0,&quot;rounded&quot;:0};" parent="1" vertex="1">
      <mxGeometry x="691" y="632" width="10" height="33" as="geometry" />
    </mxCell>
    <mxCell id="8kUsYUT2bKm_VSwphkvY-35" value="" style="endArrow=block;html=1;rounded=0;endFill=1;" parent="1" edge="1">
      <mxGeometry width="50" height="50" relative="1" as="geometry">
        <mxPoint x="425" y="632" as="sourcePoint" />
        <mxPoint x="690" y="632" as="targetPoint" />
      </mxGeometry>
    </mxCell>
    <mxCell id="8kUsYUT2bKm_VSwphkvY-36" value="parseRecurrence(spending : Spending&lt;span style=&quot;background-color: initial;&quot;&gt;)&lt;/span&gt;" style="text;html=1;align=center;verticalAlign=middle;whiteSpace=wrap;rounded=0;" parent="1" vertex="1">
      <mxGeometry x="444" y="607" width="221" height="30" as="geometry" />
    </mxCell>
    <mxCell id="8kUsYUT2bKm_VSwphkvY-37" value="" style="endArrow=block;dashed=1;html=1;rounded=0;endFill=1;" parent="1" source="8kUsYUT2bKm_VSwphkvY-34" edge="1">
      <mxGeometry width="50" height="50" relative="1" as="geometry">
        <mxPoint x="638.9999999999998" y="665" as="sourcePoint" />
        <mxPoint x="425.5" y="665" as="targetPoint" />
      </mxGeometry>
    </mxCell>
    <mxCell id="8kUsYUT2bKm_VSwphkvY-38" value="Recurrence child object" style="text;html=1;align=center;verticalAlign=middle;whiteSpace=wrap;rounded=0;" parent="1" vertex="1">
      <mxGeometry x="468" y="640" width="195" height="30" as="geometry" />
    </mxCell>
    <mxCell id="8kUsYUT2bKm_VSwphkvY-39" value="" style="html=1;points=[];perimeter=orthogonalPerimeter;outlineConnect=0;targetShapes=umlLifeline;portConstraint=eastwest;newEdgeStyle={&quot;edgeStyle&quot;:&quot;elbowEdgeStyle&quot;,&quot;elbow&quot;:&quot;vertical&quot;,&quot;curved&quot;:0,&quot;rounded&quot;:0};" parent="1" vertex="1">
      <mxGeometry x="904" y="738" width="10" height="83" as="geometry" />
    </mxCell>
    <mxCell id="8kUsYUT2bKm_VSwphkvY-40" value="" style="endArrow=block;html=1;rounded=0;endFill=1;" parent="1" source="8kUsYUT2bKm_VSwphkvY-2" target="8kUsYUT2bKm_VSwphkvY-39" edge="1">
      <mxGeometry width="50" height="50" relative="1" as="geometry">
        <mxPoint x="313" y="738" as="sourcePoint" />
        <mxPoint x="750" y="738" as="targetPoint" />
      </mxGeometry>
    </mxCell>
    <mxCell id="8kUsYUT2bKm_VSwphkvY-41" value="checkSpendingRecurrence(...)" style="text;html=1;align=center;verticalAlign=middle;whiteSpace=wrap;rounded=0;" parent="1" vertex="1">
      <mxGeometry x="424.5" y="711" width="225.5" height="30" as="geometry" />
    </mxCell>
    <mxCell id="8kUsYUT2bKm_VSwphkvY-42" value="loop" style="shape=umlFrame;whiteSpace=wrap;html=1;pointerEvents=0;" parent="1" vertex="1">
      <mxGeometry x="342" y="581" width="660" height="250" as="geometry" />
    </mxCell>
    <mxCell id="8kUsYUT2bKm_VSwphkvY-43" value="[until last element of spendings]" style="text;html=1;align=center;verticalAlign=middle;whiteSpace=wrap;rounded=0;" parent="1" vertex="1">
      <mxGeometry x="415" y="577" width="210" height="30" as="geometry" />
    </mxCell>
    <mxCell id="8kUsYUT2bKm_VSwphkvY-44" value="" style="rounded=0;whiteSpace=wrap;html=1;" parent="1" vertex="1">
      <mxGeometry x="799" y="752" width="182" height="50" as="geometry" />
    </mxCell>
    <mxCell id="8kUsYUT2bKm_VSwphkvY-45" value="" style="shape=card;whiteSpace=wrap;html=1;rotation=90;size=15;flipV=0;flipH=1;" parent="1" vertex="1">
      <mxGeometry x="821.5" y="730" width="20" height="65" as="geometry" />
    </mxCell>
    <mxCell id="8kUsYUT2bKm_VSwphkvY-46" value="ref" style="text;html=1;align=center;verticalAlign=middle;whiteSpace=wrap;rounded=0;" parent="1" vertex="1">
      <mxGeometry x="806" y="752" width="36" height="20" as="geometry" />
    </mxCell>
    <mxCell id="8kUsYUT2bKm_VSwphkvY-47" value="Add recurring entry" style="text;html=1;align=center;verticalAlign=middle;whiteSpace=wrap;rounded=0;" parent="1" vertex="1">
      <mxGeometry x="859" y="771" width="110" height="26" as="geometry" />
    </mxCell>
    <mxCell id="8kUsYUT2bKm_VSwphkvY-48" value="" style="endArrow=block;dashed=1;html=1;rounded=0;endFill=1;" parent="1" edge="1">
      <mxGeometry width="50" height="50" relative="1" as="geometry">
        <mxPoint x="902" y="820" as="sourcePoint" />
        <mxPoint x="424" y="820" as="targetPoint" />
      </mxGeometry>
    </mxCell>
    <mxCell id="8kUsYUT2bKm_VSwphkvY-49" value="return" style="text;html=1;align=center;verticalAlign=middle;whiteSpace=wrap;rounded=0;" parent="1" vertex="1">
      <mxGeometry x="686" y="795" width="60" height="31" as="geometry" />
    </mxCell>
    <mxCell id="8kUsYUT2bKm_VSwphkvY-50" value="" style="endArrow=block;dashed=1;html=1;rounded=0;endFill=1;" parent="1" edge="1">
      <mxGeometry width="50" height="50" relative="1" as="geometry">
        <mxPoint x="303" y="530" as="sourcePoint" />
        <mxPoint x="93" y="530" as="targetPoint" />
      </mxGeometry>
    </mxCell>
    <mxCell id="8kUsYUT2bKm_VSwphkvY-51" value="return" style="text;html=1;align=center;verticalAlign=middle;whiteSpace=wrap;rounded=0;" parent="1" vertex="1">
      <mxGeometry x="131" y="499" width="60" height="31" as="geometry" />
    </mxCell>
    <mxCell id="8kUsYUT2bKm_VSwphkvY-52" value="" style="endArrow=block;html=1;rounded=0;endFill=1;" parent="1" source="8kUsYUT2bKm_VSwphkvY-6" edge="1">
      <mxGeometry width="50" height="50" relative="1" as="geometry">
        <mxPoint x="93" y="556.47" as="sourcePoint" />
        <mxPoint x="415" y="556.4700000000001" as="targetPoint" />
      </mxGeometry>
    </mxCell>
    <mxCell id="8kUsYUT2bKm_VSwphkvY-53" value="updateRecurrence()" style="text;html=1;align=center;verticalAlign=middle;whiteSpace=wrap;rounded=0;" parent="1" vertex="1">
      <mxGeometry x="225" y="531" width="60" height="30" as="geometry" />
    </mxCell>
    <mxCell id="8kUsYUT2bKm_VSwphkvY-54" value="" style="endArrow=block;dashed=1;html=1;rounded=0;endFill=1;" parent="1" edge="1">
      <mxGeometry width="50" height="50" relative="1" as="geometry">
        <mxPoint x="420" y="856" as="sourcePoint" />
        <mxPoint x="95.38888888888903" y="856.0000000000002" as="targetPoint" />
      </mxGeometry>
    </mxCell>
    <mxCell id="8kUsYUT2bKm_VSwphkvY-55" value="return" style="text;html=1;align=center;verticalAlign=middle;whiteSpace=wrap;rounded=0;" parent="1" vertex="1">
      <mxGeometry x="225" y="826" width="60" height="31" as="geometry" />
    </mxCell>
    <mxCell id="8kUsYUT2bKm_VSwphkvY-56" value="opt" style="shape=umlFrame;whiteSpace=wrap;html=1;pointerEvents=0;" parent="1" vertex="1">
      <mxGeometry x="240" y="340" width="750" height="159" as="geometry" />
    </mxCell>
    <mxCell id="8kUsYUT2bKm_VSwphkvY-57" value="[recurrence child is not null]" style="text;html=1;align=center;verticalAlign=middle;whiteSpace=wrap;rounded=0;" parent="1" vertex="1">
      <mxGeometry x="295" y="340" width="210" height="30" as="geometry" />
    </mxCell>
    <mxCell id="8kUsYUT2bKm_VSwphkvY-58" value="opt" style="shape=umlFrame;whiteSpace=wrap;html=1;pointerEvents=0;" parent="1" vertex="1">
      <mxGeometry x="350" y="686" width="640" height="140" as="geometry" />
    </mxCell>
    <mxCell id="8kUsYUT2bKm_VSwphkvY-59" value="[recurrence child is not null]" style="text;html=1;align=center;verticalAlign=middle;whiteSpace=wrap;rounded=0;" parent="1" vertex="1">
      <mxGeometry x="397.5" y="683" width="210" height="30" as="geometry" />
    </mxCell>
    <mxCell id="dYS6qZjKBtVAGGHo33hT-4" value="" style="endArrow=none;dashed=1;html=1;rounded=0;" parent="1" edge="1">
      <mxGeometry width="50" height="50" relative="1" as="geometry">
        <mxPoint x="860" y="60" as="sourcePoint" />
        <mxPoint x="820" y="120" as="targetPoint" />
      </mxGeometry>
    </mxCell>
    <mxCell id="ExTtlxnkvl1gotdYktdm-2" value="" style="shape=umlDestroy;whiteSpace=wrap;html=1;strokeWidth=3;targetShapes=umlLifeline;fillColor=#e51400;strokeColor=#B20000;fontColor=#ffffff;" vertex="1" parent="1">
      <mxGeometry x="881.25" y="854" width="59.5" height="57" as="geometry" />
    </mxCell>
  </root>
</mxGraphModel>
